G04*
G04 #@! TF.GenerationSoftware,Altium Limited,Altium Designer,19.1.5 (86)*
G04*
G04 Layer_Physical_Order=1*
G04 Layer_Color=255*
%FSLAX25Y25*%
%MOIN*%
G70*
G01*
G75*
%ADD14O,0.07000X0.01900*%
G04:AMPARAMS|DCode=15|XSize=19mil|YSize=70mil|CornerRadius=4.75mil|HoleSize=0mil|Usage=FLASHONLY|Rotation=270.000|XOffset=0mil|YOffset=0mil|HoleType=Round|Shape=RoundedRectangle|*
%AMROUNDEDRECTD15*
21,1,0.01900,0.06050,0,0,270.0*
21,1,0.00950,0.07000,0,0,270.0*
1,1,0.00950,-0.03025,-0.00475*
1,1,0.00950,-0.03025,0.00475*
1,1,0.00950,0.03025,0.00475*
1,1,0.00950,0.03025,-0.00475*
%
%ADD15ROUNDEDRECTD15*%
%ADD16R,0.03500X0.03000*%
%ADD17R,0.02200X0.02200*%
%ADD24C,0.01500*%
%ADD25C,0.05906*%
%ADD26R,0.05906X0.05906*%
%ADD27C,0.03543*%
G36*
X3630Y41488D02*
X7232Y41014D01*
X10779Y40228D01*
X14244Y39135D01*
X17601Y37745D01*
X20823Y36067D01*
X23888Y34115D01*
X26770Y31903D01*
X29449Y29449D01*
X31903Y26770D01*
X34115Y23888D01*
X36067Y20823D01*
X37745Y17601D01*
X38501Y15776D01*
X38058Y15539D01*
X38050Y15550D01*
X29739Y23861D01*
X29741Y23864D01*
X29890Y25000D01*
X29741Y26136D01*
X29302Y27195D01*
X28604Y28104D01*
X27695Y28802D01*
X26636Y29241D01*
X25500Y29390D01*
X24364Y29241D01*
X23305Y28802D01*
X22396Y28104D01*
X21698Y27195D01*
X21259Y26136D01*
X21110Y25000D01*
X21259Y23864D01*
X21698Y22805D01*
X22396Y21896D01*
X23305Y21198D01*
X24364Y20759D01*
X25500Y20610D01*
X26636Y20759D01*
X26639Y20761D01*
X28866Y18534D01*
X28535Y18157D01*
X27695Y18802D01*
X26636Y19241D01*
X25500Y19390D01*
X24364Y19241D01*
X23305Y18802D01*
X22396Y18104D01*
X21698Y17195D01*
X21259Y16136D01*
X21110Y15000D01*
X21259Y13864D01*
X21260Y13861D01*
X18062Y10662D01*
X17317Y11160D01*
X16400Y11343D01*
X11300D01*
X10383Y11160D01*
X9606Y10641D01*
X9086Y9863D01*
X8904Y8946D01*
X9086Y8029D01*
X9329Y7667D01*
X9086Y7304D01*
X8904Y6387D01*
X9086Y5471D01*
X9329Y5108D01*
X9086Y4745D01*
X8904Y3828D01*
X9086Y2911D01*
X9329Y2549D01*
X9086Y2186D01*
X8904Y1269D01*
X9086Y352D01*
X9329Y-10D01*
X9086Y-373D01*
X8904Y-1290D01*
X9086Y-2207D01*
X9329Y-2569D01*
X9086Y-2932D01*
X8904Y-3849D01*
X9086Y-4766D01*
X9569Y-5488D01*
X9463Y-5647D01*
X9391Y-6008D01*
X10301D01*
X10383Y-6063D01*
X11300Y-6245D01*
X13850D01*
X16400D01*
X17317Y-6063D01*
X17399Y-6008D01*
X18309D01*
X18297Y-5951D01*
X19067Y-5798D01*
X19778Y-5322D01*
X20682Y-4418D01*
X21156Y-4652D01*
X21110Y-5000D01*
X21259Y-6136D01*
X21698Y-7195D01*
X22396Y-8104D01*
X23305Y-8802D01*
X24364Y-9241D01*
X25500Y-9390D01*
X26636Y-9241D01*
X27695Y-8802D01*
X28604Y-8104D01*
X29302Y-7195D01*
X29741Y-6136D01*
X29890Y-5000D01*
X29741Y-3864D01*
X29302Y-2805D01*
X28604Y-1896D01*
X27695Y-1198D01*
X26636Y-759D01*
X25500Y-610D01*
X24364Y-759D01*
X23305Y-1198D01*
X22396Y-1896D01*
X22192Y-2161D01*
X21692Y-1991D01*
Y1991D01*
X22192Y2161D01*
X22396Y1896D01*
X23305Y1198D01*
X24364Y759D01*
X25500Y610D01*
X26636Y759D01*
X27695Y1198D01*
X28604Y1896D01*
X29302Y2805D01*
X29741Y3864D01*
X29890Y5000D01*
X29741Y6136D01*
X29302Y7195D01*
X28604Y8104D01*
X27695Y8802D01*
X26636Y9241D01*
X25500Y9390D01*
X24364Y9241D01*
X23305Y8802D01*
X22465Y8157D01*
X22134Y8534D01*
X24361Y10761D01*
X24364Y10759D01*
X25500Y10610D01*
X26636Y10759D01*
X27695Y11198D01*
X28604Y11896D01*
X29302Y12805D01*
X29741Y13864D01*
X29890Y15000D01*
X29741Y16136D01*
X29302Y17195D01*
X28657Y18035D01*
X29034Y18366D01*
X34308Y13092D01*
Y8803D01*
X34305Y8802D01*
X33396Y8104D01*
X32698Y7195D01*
X32259Y6136D01*
X32110Y5000D01*
X32259Y3864D01*
X32698Y2805D01*
X33396Y1896D01*
X34305Y1198D01*
X35364Y759D01*
X36500Y610D01*
X37636Y759D01*
X38695Y1198D01*
X39604Y1896D01*
X40302Y2805D01*
X40741Y3864D01*
X40847Y4671D01*
X41351D01*
X41488Y3630D01*
X41647Y0D01*
X41488Y-3630D01*
X41014Y-7232D01*
X40953Y-7508D01*
X40453Y-7453D01*
Y-5400D01*
X36900D01*
Y-8953D01*
X40120D01*
X40529Y-9421D01*
X40228Y-10779D01*
X39135Y-14244D01*
X37745Y-17601D01*
X36067Y-20823D01*
X34115Y-23888D01*
X31903Y-26770D01*
X30319Y-28499D01*
X29853Y-28318D01*
Y-20647D01*
X21147D01*
Y-22708D01*
X20150D01*
Y-22000D01*
X19991D01*
X19750Y-21600D01*
Y-19500D01*
X17000D01*
Y-19100D01*
X16600D01*
Y-16600D01*
X15112D01*
X15025Y-16161D01*
X14550Y-15450D01*
X10334Y-11234D01*
X10413Y-11069D01*
X10629Y-10822D01*
X11300Y-10955D01*
X13450D01*
Y-9367D01*
X9391D01*
X9445Y-9638D01*
X9198Y-9854D01*
X9033Y-9933D01*
X8050Y-8950D01*
X7339Y-8475D01*
X6500Y-8308D01*
X-7000D01*
X-7839Y-8475D01*
X-8416Y-8860D01*
X-8831Y-8748D01*
X-8962Y-8655D01*
X-9086Y-8029D01*
X-9329Y-7667D01*
X-9086Y-7304D01*
X-8904Y-6387D01*
X-9086Y-5471D01*
X-9329Y-5108D01*
X-9086Y-4745D01*
X-8904Y-3828D01*
X-9086Y-2911D01*
X-9329Y-2549D01*
X-9086Y-2186D01*
X-8904Y-1269D01*
X-9086Y-352D01*
X-9329Y10D01*
X-9086Y373D01*
X-8904Y1290D01*
X-9086Y2207D01*
X-9329Y2569D01*
X-9086Y2932D01*
X-9060Y3063D01*
X-8917Y3096D01*
X-8549Y3072D01*
X-8270Y2400D01*
X-7762Y1738D01*
X-7100Y1230D01*
X-6328Y910D01*
X-5500Y801D01*
X-4672Y910D01*
X-3901Y1230D01*
X-3238Y1738D01*
X-2730Y2400D01*
X-2410Y3172D01*
X-2301Y4000D01*
X-2410Y4828D01*
X-2730Y5599D01*
X-3238Y6262D01*
X-3255Y6275D01*
X-3085Y6775D01*
X-1375D01*
X808Y4592D01*
Y2816D01*
X738Y2762D01*
X230Y2100D01*
X-90Y1328D01*
X-199Y500D01*
X-90Y-328D01*
X230Y-1099D01*
X738Y-1762D01*
X1400Y-2270D01*
X2172Y-2590D01*
X3000Y-2699D01*
X3828Y-2590D01*
X4600Y-2270D01*
X5262Y-1762D01*
X5770Y-1099D01*
X6090Y-328D01*
X6199Y500D01*
X6090Y1328D01*
X5770Y2100D01*
X5262Y2762D01*
X5192Y2816D01*
Y5500D01*
X5025Y6339D01*
X4550Y7050D01*
X1908Y9692D01*
X2008Y9963D01*
X2138Y10170D01*
X4172Y10658D01*
X6130Y11469D01*
X7937Y12576D01*
X9548Y13952D01*
X10924Y15563D01*
X12031Y17370D01*
X12842Y19327D01*
X13336Y21388D01*
X13503Y23500D01*
X13336Y25612D01*
X12842Y27673D01*
X12031Y29630D01*
X10924Y31437D01*
X9548Y33048D01*
X7937Y34424D01*
X6130Y35531D01*
X4172Y36342D01*
X2112Y36836D01*
X0Y37003D01*
X-2112Y36836D01*
X-4172Y36342D01*
X-6130Y35531D01*
X-7937Y34424D01*
X-9548Y33048D01*
X-10924Y31437D01*
X-12031Y29630D01*
X-12842Y27673D01*
X-13336Y25612D01*
X-13503Y23500D01*
X-13336Y21388D01*
X-12842Y19327D01*
X-12031Y17370D01*
X-10924Y15563D01*
X-9548Y13952D01*
X-7937Y12576D01*
X-6440Y11659D01*
X-6581Y11159D01*
X-10020D01*
X-10093Y11208D01*
X-10825Y11354D01*
X-16875D01*
X-17607Y11208D01*
X-18227Y10794D01*
X-18641Y10174D01*
X-18787Y9442D01*
Y8492D01*
X-18641Y7760D01*
X-18482Y7522D01*
X-18614Y7325D01*
X-18796Y6408D01*
X-18614Y5491D01*
X-18371Y5128D01*
X-18614Y4766D01*
X-18796Y3849D01*
X-18614Y2932D01*
X-18371Y2569D01*
X-18614Y2207D01*
X-18796Y1290D01*
X-18614Y373D01*
X-18371Y10D01*
X-18614Y-352D01*
X-18796Y-1269D01*
X-18614Y-2186D01*
X-18371Y-2549D01*
X-18614Y-2911D01*
X-18796Y-3828D01*
X-18614Y-4745D01*
X-18371Y-5108D01*
X-18614Y-5471D01*
X-18796Y-6387D01*
X-18614Y-7304D01*
X-18371Y-7667D01*
X-18614Y-8029D01*
X-18796Y-8946D01*
X-18614Y-9863D01*
X-18094Y-10641D01*
X-17706Y-10900D01*
X-17858Y-11400D01*
X-20100D01*
Y-13100D01*
X-18000D01*
Y-13500D01*
X-17600D01*
Y-15600D01*
X-16500D01*
Y-16000D01*
X-11778D01*
X-11497Y-16499D01*
X-12031Y-17370D01*
X-12842Y-19327D01*
X-13336Y-21388D01*
X-13503Y-23500D01*
X-13336Y-25612D01*
X-12842Y-27673D01*
X-12031Y-29630D01*
X-10924Y-31437D01*
X-9548Y-33048D01*
X-7937Y-34424D01*
X-6130Y-35531D01*
X-4172Y-36342D01*
X-2112Y-36836D01*
X0Y-37003D01*
X2112Y-36836D01*
X4172Y-36342D01*
X6130Y-35531D01*
X7937Y-34424D01*
X9548Y-33048D01*
X10924Y-31437D01*
X12031Y-29630D01*
X12842Y-27673D01*
X12977Y-27110D01*
X13441Y-26910D01*
X13850Y-27123D01*
Y-27800D01*
X20150D01*
Y-27092D01*
X21147D01*
Y-29353D01*
X28813D01*
X29008Y-29853D01*
X26770Y-31903D01*
X23888Y-34115D01*
X20823Y-36067D01*
X17601Y-37745D01*
X14244Y-39135D01*
X10779Y-40228D01*
X7232Y-41014D01*
X3630Y-41488D01*
X0Y-41647D01*
X-3630Y-41488D01*
X-7232Y-41014D01*
X-10779Y-40228D01*
X-14244Y-39135D01*
X-17601Y-37745D01*
X-20823Y-36067D01*
X-23888Y-34115D01*
X-26770Y-31903D01*
X-29449Y-29449D01*
X-31903Y-26770D01*
X-34115Y-23888D01*
X-36067Y-20823D01*
X-37745Y-17601D01*
X-39135Y-14244D01*
X-40228Y-10779D01*
X-41014Y-7232D01*
X-41488Y-3630D01*
X-41647Y0D01*
X-41488Y3630D01*
X-41014Y7232D01*
X-40228Y10779D01*
X-39135Y14244D01*
X-37745Y17601D01*
X-36067Y20823D01*
X-34115Y23888D01*
X-31903Y26770D01*
X-29449Y29449D01*
X-26770Y31903D01*
X-23888Y34115D01*
X-20823Y36067D01*
X-17601Y37745D01*
X-14244Y39135D01*
X-10779Y40228D01*
X-7232Y41014D01*
X-3630Y41488D01*
X0Y41647D01*
X3630Y41488D01*
D02*
G37*
%LPC*%
G36*
X40453Y-1047D02*
X36900D01*
Y-4600D01*
X40453D01*
Y-1047D01*
D02*
G37*
G36*
X36100D02*
X32547D01*
Y-4600D01*
X36100D01*
Y-1047D01*
D02*
G37*
G36*
X18309Y-6808D02*
X13850D01*
X9391D01*
X9463Y-7169D01*
X9810Y-7687D01*
X9463Y-8206D01*
X9391Y-8567D01*
X13850D01*
X18309D01*
X18237Y-8206D01*
X17890Y-7687D01*
X18237Y-7169D01*
X18309Y-6808D01*
D02*
G37*
G36*
X36100Y-5400D02*
X32547D01*
Y-8953D01*
X36100D01*
Y-5400D01*
D02*
G37*
G36*
X18309Y-9367D02*
X14250D01*
Y-10955D01*
X16400D01*
X17161Y-10804D01*
X17806Y-10373D01*
X18237Y-9728D01*
X18309Y-9367D01*
D02*
G37*
G36*
X25900Y-11066D02*
Y-14600D01*
X29434D01*
X29351Y-13968D01*
X28953Y-13007D01*
X28319Y-12181D01*
X27493Y-11547D01*
X26532Y-11149D01*
X25900Y-11066D01*
D02*
G37*
G36*
X25100D02*
X24468Y-11149D01*
X23507Y-11547D01*
X22681Y-12181D01*
X22047Y-13007D01*
X21649Y-13968D01*
X21566Y-14600D01*
X25100D01*
Y-11066D01*
D02*
G37*
G36*
X-18400Y-13900D02*
X-20100D01*
Y-15600D01*
X-18400D01*
Y-13900D01*
D02*
G37*
G36*
X19750Y-16600D02*
X17400D01*
Y-18700D01*
X19750D01*
Y-16600D01*
D02*
G37*
G36*
X29434Y-15400D02*
X25900D01*
Y-18934D01*
X26532Y-18851D01*
X27493Y-18453D01*
X28319Y-17819D01*
X28953Y-16993D01*
X29351Y-16032D01*
X29434Y-15400D01*
D02*
G37*
G36*
X25100D02*
X21566D01*
X21649Y-16032D01*
X22047Y-16993D01*
X22681Y-17819D01*
X23507Y-18453D01*
X24468Y-18851D01*
X25100Y-18934D01*
Y-15400D01*
D02*
G37*
%LPD*%
D14*
X-13850Y-8946D02*
D03*
X13850Y8946D02*
D03*
Y-1290D02*
D03*
X-13850Y1290D02*
D03*
X13850Y6387D02*
D03*
Y3828D02*
D03*
X-13850Y6408D02*
D03*
Y-3828D02*
D03*
Y-6387D02*
D03*
Y3849D02*
D03*
X13850Y1269D02*
D03*
X-13850Y-1269D02*
D03*
X13850Y-8967D02*
D03*
Y-6408D02*
D03*
Y-3849D02*
D03*
D15*
X-13850Y8967D02*
D03*
D16*
X17000Y-24900D02*
D03*
Y-19100D02*
D03*
D17*
X-18000Y-13500D02*
D03*
X-14000D02*
D03*
D24*
X-7908Y6408D02*
X-5500Y4000D01*
X-13850Y6408D02*
X-7908D01*
X3000Y500D02*
Y5500D01*
X-467Y8967D02*
X3000Y5500D01*
X-13850Y8967D02*
X-467D01*
X25142Y14642D02*
Y15000D01*
X19500Y-2500D02*
Y9000D01*
X25142Y14642D01*
X18228Y-3772D02*
X19500Y-2500D01*
X13927Y-3772D02*
X18228D01*
X13850Y-3849D02*
X13927Y-3772D01*
X13850Y-8967D02*
Y-6408D01*
X-14000Y-9097D02*
X-13850Y-8946D01*
X-14000Y-13500D02*
Y-9097D01*
Y-13500D02*
X-10000D01*
X-7000Y-10500D01*
X6500D01*
X13000Y-17000D01*
X25400Y-24900D02*
X25500Y-25000D01*
X17000Y-24900D02*
X25400D01*
X13000Y-23500D02*
Y-17000D01*
X25142Y15000D02*
X25500D01*
X14400Y-24900D02*
X17000D01*
X13000Y-23500D02*
X14400Y-24900D01*
X36500Y5000D02*
Y14000D01*
X25500Y25000D02*
X36500Y14000D01*
X24308Y-5000D02*
X25500D01*
D25*
X36500Y5000D02*
D03*
X25500Y-15000D02*
D03*
Y-5000D02*
D03*
Y5000D02*
D03*
Y15000D02*
D03*
Y25000D02*
D03*
D26*
X36500Y-5000D02*
D03*
X25500Y-25000D02*
D03*
D27*
X-5500Y4000D02*
D03*
X3000Y500D02*
D03*
X-16500Y16000D02*
D03*
X17500Y-13500D02*
D03*
X17000Y17500D02*
D03*
X-24000Y-8000D02*
D03*
X-18500Y-18500D02*
D03*
X-3000Y-4500D02*
D03*
M02*
