G04*
G04 #@! TF.GenerationSoftware,Altium Limited,Altium Designer,19.1.5 (86)*
G04*
G04 Layer_Color=2752767*
%FSLAX25Y25*%
%MOIN*%
G70*
G01*
G75*
%ADD24C,0.01500*%
%ADD28C,0.01000*%
%ADD29C,0.00200*%
%ADD30C,0.01600*%
D24*
X46750Y7750D02*
X1103857D01*
X46750Y-22250D02*
X1103857D01*
X46750Y-37250D02*
X1103857D01*
Y22750D01*
X46750D02*
X1103857D01*
X46750Y-37250D02*
Y22750D01*
X965996Y-37250D02*
Y22750D01*
X832635Y-37250D02*
Y22750D01*
X747259Y-37250D02*
Y22750D01*
X672279Y-37250D02*
Y22750D01*
X597700Y-37250D02*
Y22750D01*
X538715Y-37250D02*
Y22750D01*
X388760Y-37250D02*
Y22750D01*
X315380Y-37250D02*
Y22750D01*
X264792Y-37250D02*
Y22750D01*
X154824Y-37250D02*
Y22750D01*
X101838Y-37250D02*
Y22750D01*
D28*
X59396Y583D02*
G03*
X59396Y583I-3333J0D01*
G01*
X52729Y-17750D02*
X59396D01*
Y-11083D01*
X52729D02*
X59396D01*
X52729Y-17750D02*
Y-11083D01*
X676779Y1249D02*
X678779Y-2750D01*
X680778Y1249D01*
X682778Y-1750D02*
X683777Y-2750D01*
X685777D01*
X686776Y-1750D01*
Y2248D01*
X685777Y3248D01*
X683777D01*
X682778Y2248D01*
Y1249D01*
X683777Y249D01*
X686776D01*
X688776Y2248D02*
X689775Y3248D01*
X691775D01*
X692774Y2248D01*
Y-1750D01*
X691775Y-2750D01*
X689775D01*
X688776Y-1750D01*
Y2248D01*
X694774Y3248D02*
Y-2750D01*
Y249D01*
X695773Y1249D01*
X697773D01*
X698772Y249D01*
Y-2750D01*
X704770Y3248D02*
X700772D01*
Y249D01*
X702771Y1249D01*
X703771D01*
X704770Y249D01*
Y-1750D01*
X703771Y-2750D01*
X701771D01*
X700772Y-1750D01*
X706770Y2248D02*
X707769Y3248D01*
X709769D01*
X710769Y2248D01*
Y-1750D01*
X709769Y-2750D01*
X707769D01*
X706770Y-1750D01*
Y2248D01*
X712768Y-2750D02*
Y1249D01*
X713767D01*
X714767Y249D01*
Y-2750D01*
Y249D01*
X715767Y1249D01*
X716767Y249D01*
Y-2750D01*
X718766Y2248D02*
X719766Y3248D01*
X721765D01*
X722765Y2248D01*
Y-1750D01*
X721765Y-2750D01*
X719766D01*
X718766Y-1750D01*
Y2248D01*
X724764Y-2750D02*
Y1249D01*
X725764D01*
X726763Y249D01*
Y-2750D01*
Y249D01*
X727763Y1249D01*
X728763Y249D01*
Y-2750D01*
X730762Y1249D02*
X734761Y-2750D01*
X732761Y-751D01*
X734761Y1249D01*
X730762Y-2750D01*
X736760Y2248D02*
X737760Y3248D01*
X739759D01*
X740759Y2248D01*
Y-1750D01*
X739759Y-2750D01*
X737760D01*
X736760Y-1750D01*
Y2248D01*
X678779Y-17750D02*
X676779Y-15751D01*
Y-13751D01*
X678779Y-11752D01*
X681778Y-17750D02*
Y-11752D01*
X683777Y-13751D01*
X685777Y-11752D01*
Y-17750D01*
X687776D02*
X689775D01*
X688776D01*
Y-13751D01*
X687776D01*
X692774D02*
X696773Y-17750D01*
X694774Y-15751D01*
X696773Y-13751D01*
X692774Y-17750D01*
X701771D02*
X699772D01*
X698772Y-16750D01*
Y-14751D01*
X699772Y-13751D01*
X701771D01*
X702771Y-14751D01*
Y-15751D01*
X698772D01*
X708769Y-11752D02*
Y-17750D01*
X705770D01*
X704770Y-16750D01*
Y-14751D01*
X705770Y-13751D01*
X708769D01*
X710769Y-17750D02*
X712768Y-15751D01*
Y-13751D01*
X710769Y-11752D01*
X602200Y-2750D02*
Y3248D01*
X605199D01*
X606198Y2248D01*
Y249D01*
X605199Y-751D01*
X602200D01*
X604199D02*
X606198Y-2750D01*
X609197D02*
X611197D01*
X612196Y-1750D01*
Y249D01*
X611197Y1249D01*
X609197D01*
X608198Y249D01*
Y-1750D01*
X609197Y-2750D01*
X614196Y1249D02*
Y-1750D01*
X615195Y-2750D01*
X618194D01*
Y1249D01*
X620194Y-2750D02*
Y1249D01*
X623193D01*
X624192Y249D01*
Y-2750D01*
X630191Y3248D02*
Y-2750D01*
X627192D01*
X626192Y-1750D01*
Y249D01*
X627192Y1249D01*
X630191D01*
X635189Y-2750D02*
X633190D01*
X632190Y-1750D01*
Y249D01*
X633190Y1249D01*
X635189D01*
X636189Y249D01*
Y-751D01*
X632190D01*
X642187Y3248D02*
Y-2750D01*
X639188D01*
X638188Y-1750D01*
Y249D01*
X639188Y1249D01*
X642187D01*
X604199Y-17750D02*
X602200Y-15751D01*
Y-13751D01*
X604199Y-11752D01*
X607198Y-17750D02*
Y-11752D01*
X609197Y-13751D01*
X611197Y-11752D01*
Y-17750D01*
X613196D02*
X615195D01*
X614196D01*
Y-13751D01*
X613196D01*
X618194D02*
X622193Y-17750D01*
X620194Y-15751D01*
X622193Y-13751D01*
X618194Y-17750D01*
X627192D02*
X625192D01*
X624192Y-16750D01*
Y-14751D01*
X625192Y-13751D01*
X627192D01*
X628191Y-14751D01*
Y-15751D01*
X624192D01*
X634189Y-11752D02*
Y-17750D01*
X631190D01*
X630191Y-16750D01*
Y-14751D01*
X631190Y-13751D01*
X634189D01*
X636189Y-17750D02*
X638188Y-15751D01*
Y-13751D01*
X636189Y-11752D01*
X543215Y3248D02*
Y-751D01*
X545214Y-2750D01*
X547214Y-751D01*
Y3248D01*
X549213Y-2750D02*
X551212D01*
X550212D01*
Y1249D01*
X549213D01*
X555211D02*
X557210D01*
X558210Y249D01*
Y-2750D01*
X555211D01*
X554211Y-1750D01*
X555211Y-751D01*
X558210D01*
X543215Y-17750D02*
Y-11752D01*
X546214D01*
X547214Y-12752D01*
Y-14751D01*
X546214Y-15751D01*
X543215D01*
X550212Y-13751D02*
X552212D01*
X553211Y-14751D01*
Y-17750D01*
X550212D01*
X549213Y-16750D01*
X550212Y-15751D01*
X553211D01*
X559210Y-11752D02*
Y-17750D01*
X556211D01*
X555211Y-16750D01*
Y-14751D01*
X556211Y-13751D01*
X559210D01*
X393260Y3248D02*
X397258D01*
X395259D01*
Y-2750D01*
X400257D02*
X402257D01*
X403257Y-1750D01*
Y249D01*
X402257Y1249D01*
X400257D01*
X399258Y249D01*
Y-1750D01*
X400257Y-2750D01*
X405256Y-4749D02*
Y1249D01*
X408255D01*
X409255Y249D01*
Y-1750D01*
X408255Y-2750D01*
X405256D01*
X417252Y3248D02*
Y-2750D01*
X421251D01*
X424250Y1249D02*
X426249D01*
X427249Y249D01*
Y-2750D01*
X424250D01*
X423250Y-1750D01*
X424250Y-751D01*
X427249D01*
X429248Y1249D02*
Y-1750D01*
X430248Y-2750D01*
X433247D01*
Y-3750D01*
X432247Y-4749D01*
X431247D01*
X433247Y-2750D02*
Y1249D01*
X438245Y-2750D02*
X436246D01*
X435246Y-1750D01*
Y249D01*
X436246Y1249D01*
X438245D01*
X439245Y249D01*
Y-751D01*
X435246D01*
X441244Y1249D02*
Y-2750D01*
Y-751D01*
X442244Y249D01*
X443244Y1249D01*
X444243D01*
X453240Y249D02*
X457239D01*
X465236Y3248D02*
Y-2750D01*
X468235D01*
X469235Y-1750D01*
Y-751D01*
X468235Y249D01*
X465236D01*
X468235D01*
X469235Y1249D01*
Y2248D01*
X468235Y3248D01*
X465236D01*
X472234Y-2750D02*
X474233D01*
X475233Y-1750D01*
Y249D01*
X474233Y1249D01*
X472234D01*
X471235Y249D01*
Y-1750D01*
X472234Y-2750D01*
X478232Y2248D02*
Y1249D01*
X477233D01*
X479232D01*
X478232D01*
Y-1750D01*
X479232Y-2750D01*
X483231Y2248D02*
Y1249D01*
X482231D01*
X484230D01*
X483231D01*
Y-1750D01*
X484230Y-2750D01*
X488229D02*
X490228D01*
X491228Y-1750D01*
Y249D01*
X490228Y1249D01*
X488229D01*
X487229Y249D01*
Y-1750D01*
X488229Y-2750D01*
X493227D02*
Y1249D01*
X494227D01*
X495227Y249D01*
Y-2750D01*
Y249D01*
X496226Y1249D01*
X497226Y249D01*
Y-2750D01*
X505224Y3248D02*
Y-2750D01*
X509222D01*
X512221Y1249D02*
X514221D01*
X515220Y249D01*
Y-2750D01*
X512221D01*
X511222Y-1750D01*
X512221Y-751D01*
X515220D01*
X517220Y1249D02*
Y-1750D01*
X518219Y-2750D01*
X521218D01*
Y-3750D01*
X520219Y-4749D01*
X519219D01*
X521218Y-2750D02*
Y1249D01*
X526217Y-2750D02*
X524217D01*
X523218Y-1750D01*
Y249D01*
X524217Y1249D01*
X526217D01*
X527216Y249D01*
Y-751D01*
X523218D01*
X529216Y1249D02*
Y-2750D01*
Y-751D01*
X530215Y249D01*
X531215Y1249D01*
X532215D01*
X393260Y-11752D02*
X397258D01*
X395259D01*
Y-17750D01*
X400257D02*
X402257D01*
X403257Y-16750D01*
Y-14751D01*
X402257Y-13751D01*
X400257D01*
X399258Y-14751D01*
Y-16750D01*
X400257Y-17750D01*
X405256Y-19749D02*
Y-13751D01*
X408255D01*
X409255Y-14751D01*
Y-16750D01*
X408255Y-17750D01*
X405256D01*
X417252Y-11752D02*
Y-17750D01*
X421251D01*
X424250Y-13751D02*
X426249D01*
X427249Y-14751D01*
Y-17750D01*
X424250D01*
X423250Y-16750D01*
X424250Y-15751D01*
X427249D01*
X429248Y-13751D02*
Y-16750D01*
X430248Y-17750D01*
X433247D01*
Y-18750D01*
X432247Y-19749D01*
X431247D01*
X433247Y-17750D02*
Y-13751D01*
X438245Y-17750D02*
X436246D01*
X435246Y-16750D01*
Y-14751D01*
X436246Y-13751D01*
X438245D01*
X439245Y-14751D01*
Y-15751D01*
X435246D01*
X441244Y-13751D02*
Y-17750D01*
Y-15751D01*
X442244Y-14751D01*
X443244Y-13751D01*
X444243D01*
X453240Y-14751D02*
X457239D01*
X465236Y-11752D02*
Y-17750D01*
X468235D01*
X469235Y-16750D01*
Y-15751D01*
X468235Y-14751D01*
X465236D01*
X468235D01*
X469235Y-13751D01*
Y-12752D01*
X468235Y-11752D01*
X465236D01*
X472234Y-17750D02*
X474233D01*
X475233Y-16750D01*
Y-14751D01*
X474233Y-13751D01*
X472234D01*
X471235Y-14751D01*
Y-16750D01*
X472234Y-17750D01*
X478232Y-12752D02*
Y-13751D01*
X477233D01*
X479232D01*
X478232D01*
Y-16750D01*
X479232Y-17750D01*
X483231Y-12752D02*
Y-13751D01*
X482231D01*
X484230D01*
X483231D01*
Y-16750D01*
X484230Y-17750D01*
X488229D02*
X490228D01*
X491228Y-16750D01*
Y-14751D01*
X490228Y-13751D01*
X488229D01*
X487229Y-14751D01*
Y-16750D01*
X488229Y-17750D01*
X493227D02*
Y-13751D01*
X494227D01*
X495227Y-14751D01*
Y-17750D01*
Y-14751D01*
X496226Y-13751D01*
X497226Y-14751D01*
Y-17750D01*
X505224Y-11752D02*
Y-17750D01*
X509222D01*
X512221Y-13751D02*
X514221D01*
X515220Y-14751D01*
Y-17750D01*
X512221D01*
X511222Y-16750D01*
X512221Y-15751D01*
X515220D01*
X517220Y-13751D02*
Y-16750D01*
X518219Y-17750D01*
X521218D01*
Y-18750D01*
X520219Y-19749D01*
X519219D01*
X521218Y-17750D02*
Y-13751D01*
X526217Y-17750D02*
X524217D01*
X523218Y-16750D01*
Y-14751D01*
X524217Y-13751D01*
X526217D01*
X527216Y-14751D01*
Y-15751D01*
X523218D01*
X529216Y-13751D02*
Y-17750D01*
Y-15751D01*
X530215Y-14751D01*
X531215Y-13751D01*
X532215D01*
X319880Y-2750D02*
Y3248D01*
X322879D01*
X323878Y2248D01*
Y249D01*
X322879Y-751D01*
X319880D01*
X321879D02*
X323878Y-2750D01*
X326877D02*
X328877D01*
X329876Y-1750D01*
Y249D01*
X328877Y1249D01*
X326877D01*
X325878Y249D01*
Y-1750D01*
X326877Y-2750D01*
X331876Y1249D02*
Y-1750D01*
X332875Y-2750D01*
X335874D01*
Y1249D01*
X337874Y-2750D02*
Y1249D01*
X340873D01*
X341872Y249D01*
Y-2750D01*
X347870Y3248D02*
Y-2750D01*
X344871D01*
X343872Y-1750D01*
Y249D01*
X344871Y1249D01*
X347870D01*
X319880Y-17750D02*
Y-11752D01*
X322879D01*
X323878Y-12752D01*
Y-14751D01*
X322879Y-15751D01*
X319880D01*
X321879D02*
X323878Y-17750D01*
X326877D02*
X328877D01*
X329876Y-16750D01*
Y-14751D01*
X328877Y-13751D01*
X326877D01*
X325878Y-14751D01*
Y-16750D01*
X326877Y-17750D01*
X331876Y-13751D02*
Y-16750D01*
X332875Y-17750D01*
X335874D01*
Y-13751D01*
X337874Y-17750D02*
Y-13751D01*
X340873D01*
X341872Y-14751D01*
Y-17750D01*
X347870Y-11752D02*
Y-17750D01*
X344871D01*
X343872Y-16750D01*
Y-14751D01*
X344871Y-13751D01*
X347870D01*
X269292Y-2750D02*
Y3248D01*
X272291D01*
X273291Y2248D01*
Y249D01*
X272291Y-751D01*
X269292D01*
X275290Y3248D02*
X279289D01*
X277289D01*
Y-2750D01*
X281288Y3248D02*
Y-2750D01*
Y249D01*
X285287D01*
Y3248D01*
Y-2750D01*
X269292Y-17750D02*
Y-11752D01*
X272291D01*
X273291Y-12752D01*
Y-14751D01*
X272291Y-15751D01*
X269292D01*
X275290Y-11752D02*
X279289D01*
X277289D01*
Y-17750D01*
X281288Y-11752D02*
Y-17750D01*
Y-14751D01*
X285287D01*
Y-11752D01*
Y-17750D01*
X159324Y-2750D02*
X161323D01*
X160324D01*
Y3248D01*
X159324Y2248D01*
X164322Y-1750D02*
X165322Y-2750D01*
X167321D01*
X168321Y-1750D01*
Y2248D01*
X167321Y3248D01*
X165322D01*
X164322Y2248D01*
Y1249D01*
X165322Y249D01*
X168321D01*
X170320Y-2750D02*
Y-1750D01*
X171320D01*
Y-2750D01*
X170320D01*
X179317Y3248D02*
X177318Y2248D01*
X175319Y249D01*
Y-1750D01*
X176319Y-2750D01*
X178318D01*
X179317Y-1750D01*
Y-751D01*
X178318Y249D01*
X175319D01*
X181317Y-1750D02*
X182317Y-2750D01*
X184316D01*
X185316Y-1750D01*
Y2248D01*
X184316Y3248D01*
X182317D01*
X181317Y2248D01*
Y1249D01*
X182317Y249D01*
X185316D01*
X187315Y-2750D02*
Y1249D01*
X188315D01*
X189314Y249D01*
Y-2750D01*
Y249D01*
X190314Y1249D01*
X191314Y249D01*
Y-2750D01*
X193313D02*
X195312D01*
X194313D01*
Y1249D01*
X193313D01*
X198311Y-2750D02*
X200311D01*
X199311D01*
Y3248D01*
X198311D01*
X211307Y-2750D02*
X209308Y-751D01*
Y1249D01*
X211307Y3248D01*
X214306Y2248D02*
X215306Y3248D01*
X217305D01*
X218305Y2248D01*
Y-1750D01*
X217305Y-2750D01*
X215306D01*
X214306Y-1750D01*
Y2248D01*
X220304Y-2750D02*
Y-1750D01*
X221304D01*
Y-2750D01*
X220304D01*
X229301Y3248D02*
X225303D01*
Y249D01*
X227302Y1249D01*
X228302D01*
X229301Y249D01*
Y-1750D01*
X228302Y-2750D01*
X226302D01*
X225303Y-1750D01*
X231301Y2248D02*
X232300Y3248D01*
X234300D01*
X235299Y2248D01*
Y-1750D01*
X234300Y-2750D01*
X232300D01*
X231301Y-1750D01*
Y2248D01*
X237299D02*
X238298Y3248D01*
X240298D01*
X241297Y2248D01*
Y-1750D01*
X240298Y-2750D01*
X238298D01*
X237299Y-1750D01*
Y2248D01*
X243297Y-2750D02*
Y1249D01*
X244297D01*
X245296Y249D01*
Y-2750D01*
Y249D01*
X246296Y1249D01*
X247295Y249D01*
Y-2750D01*
X249295D02*
Y1249D01*
X250294D01*
X251294Y249D01*
Y-2750D01*
Y249D01*
X252294Y1249D01*
X253294Y249D01*
Y-2750D01*
X255293D02*
X257292Y-751D01*
Y1249D01*
X255293Y3248D01*
X159324Y-12752D02*
X160324Y-11752D01*
X162323D01*
X163323Y-12752D01*
Y-13751D01*
X162323Y-14751D01*
X161323D01*
X162323D01*
X163323Y-15751D01*
Y-16750D01*
X162323Y-17750D01*
X160324D01*
X159324Y-16750D01*
X169321Y-11752D02*
X165322D01*
Y-14751D01*
X167321Y-13751D01*
X168321D01*
X169321Y-14751D01*
Y-16750D01*
X168321Y-17750D01*
X166322D01*
X165322Y-16750D01*
X171320Y-17750D02*
Y-16750D01*
X172320D01*
Y-17750D01*
X171320D01*
X179317D02*
Y-11752D01*
X176319Y-14751D01*
X180317D01*
X182317Y-12752D02*
X183316Y-11752D01*
X185316D01*
X186315Y-12752D01*
Y-13751D01*
X185316Y-14751D01*
X184316D01*
X185316D01*
X186315Y-15751D01*
Y-16750D01*
X185316Y-17750D01*
X183316D01*
X182317Y-16750D01*
X188315Y-17750D02*
Y-13751D01*
X189314D01*
X190314Y-14751D01*
Y-17750D01*
Y-14751D01*
X191314Y-13751D01*
X192313Y-14751D01*
Y-17750D01*
X194313D02*
X196312D01*
X195312D01*
Y-13751D01*
X194313D01*
X199311Y-17750D02*
X201310D01*
X200311D01*
Y-11752D01*
X199311D01*
X212307Y-17750D02*
X210308Y-15751D01*
Y-13751D01*
X212307Y-11752D01*
X215306Y-12752D02*
X216305Y-11752D01*
X218305D01*
X219305Y-12752D01*
Y-16750D01*
X218305Y-17750D01*
X216305D01*
X215306Y-16750D01*
Y-12752D01*
X221304Y-17750D02*
Y-16750D01*
X222304D01*
Y-17750D01*
X221304D01*
X226302Y-16750D02*
X227302Y-17750D01*
X229301D01*
X230301Y-16750D01*
Y-12752D01*
X229301Y-11752D01*
X227302D01*
X226302Y-12752D01*
Y-13751D01*
X227302Y-14751D01*
X230301D01*
X232300Y-12752D02*
X233300Y-11752D01*
X235299D01*
X236299Y-12752D01*
Y-16750D01*
X235299Y-17750D01*
X233300D01*
X232300Y-16750D01*
Y-12752D01*
X238298D02*
X239298Y-11752D01*
X241297D01*
X242297Y-12752D01*
Y-16750D01*
X241297Y-17750D01*
X239298D01*
X238298Y-16750D01*
Y-12752D01*
X244297Y-17750D02*
Y-13751D01*
X245296D01*
X246296Y-14751D01*
Y-17750D01*
Y-14751D01*
X247295Y-13751D01*
X248295Y-14751D01*
Y-17750D01*
X250294D02*
Y-13751D01*
X251294D01*
X252294Y-14751D01*
Y-17750D01*
Y-14751D01*
X253294Y-13751D01*
X254293Y-14751D01*
Y-17750D01*
X256293D02*
X258292Y-15751D01*
Y-13751D01*
X256293Y-11752D01*
X106338Y-32750D02*
X108337D01*
X107337D01*
Y-26752D01*
X106338Y-27752D01*
X115335Y-26752D02*
X113335Y-27752D01*
X111336Y-29751D01*
Y-31750D01*
X112336Y-32750D01*
X114335D01*
X115335Y-31750D01*
Y-30751D01*
X114335Y-29751D01*
X111336D01*
X123332Y-26752D02*
X127331D01*
X125331D01*
Y-32750D01*
X130330D02*
X132329D01*
X133329Y-31750D01*
Y-29751D01*
X132329Y-28751D01*
X130330D01*
X129330Y-29751D01*
Y-31750D01*
X130330Y-32750D01*
X136328Y-27752D02*
Y-28751D01*
X135328D01*
X137328D01*
X136328D01*
Y-31750D01*
X137328Y-32750D01*
X141326Y-28751D02*
X143326D01*
X144325Y-29751D01*
Y-32750D01*
X141326D01*
X140327Y-31750D01*
X141326Y-30751D01*
X144325D01*
X146325Y-32750D02*
X148324D01*
X147324D01*
Y-26752D01*
X146325D01*
X106338Y2248D02*
X107337Y3248D01*
X109337D01*
X110336Y2248D01*
Y1249D01*
X109337Y249D01*
X110336Y-751D01*
Y-1750D01*
X109337Y-2750D01*
X107337D01*
X106338Y-1750D01*
Y-751D01*
X107337Y249D01*
X106338Y1249D01*
Y2248D01*
X107337Y249D02*
X109337D01*
X106338Y-12752D02*
X107337Y-11752D01*
X109337D01*
X110336Y-12752D01*
Y-13751D01*
X109337Y-14751D01*
X110336Y-15751D01*
Y-16750D01*
X109337Y-17750D01*
X107337D01*
X106338Y-16750D01*
Y-15751D01*
X107337Y-14751D01*
X106338Y-13751D01*
Y-12752D01*
X107337Y-14751D02*
X109337D01*
D29*
X-2000Y-4500D02*
G03*
X-2000Y-4500I-1000J0D01*
G01*
X-17500Y-18500D02*
G03*
X-17500Y-18500I-1000J0D01*
G01*
X-23000Y-8000D02*
G03*
X-23000Y-8000I-1000J0D01*
G01*
X18000Y17500D02*
G03*
X18000Y17500I-1000J0D01*
G01*
X18500Y-13500D02*
G03*
X18500Y-13500I-1000J0D01*
G01*
X-15500Y16000D02*
G03*
X-15500Y16000I-1000J0D01*
G01*
X4000Y500D02*
G03*
X4000Y500I-1000J0D01*
G01*
X-4500Y4000D02*
G03*
X-4500Y4000I-1000J0D01*
G01*
X24500Y24000D02*
X26500D01*
Y26000D01*
X24500D02*
X26500D01*
X24500Y24000D02*
Y26000D01*
Y14000D02*
X26500D01*
Y16000D01*
X24500D02*
X26500D01*
X24500Y14000D02*
Y16000D01*
Y4000D02*
X26500D01*
Y6000D01*
X24500D02*
X26500D01*
X24500Y4000D02*
Y6000D01*
Y-6000D02*
X26500D01*
Y-4000D01*
X24500D02*
X26500D01*
X24500Y-6000D02*
Y-4000D01*
Y-16000D02*
X26500D01*
Y-14000D01*
X24500D02*
X26500D01*
X24500Y-16000D02*
Y-14000D01*
Y-26000D02*
X26500D01*
Y-24000D01*
X24500D02*
X26500D01*
X24500Y-26000D02*
Y-24000D01*
X35500Y-6000D02*
X37500D01*
Y-4000D01*
X35500D02*
X37500D01*
X35500Y-6000D02*
Y-4000D01*
Y4000D02*
X37500D01*
Y6000D01*
X35500D02*
X37500D01*
X35500Y4000D02*
Y6000D01*
D30*
X970496Y19448D02*
Y12250D01*
Y15849D01*
X975294D01*
Y19448D01*
Y12250D01*
X978893D02*
X981292D01*
X982492Y13450D01*
Y15849D01*
X981292Y17048D01*
X978893D01*
X977693Y15849D01*
Y13450D01*
X978893Y12250D01*
X984891D02*
X987290D01*
X986091D01*
Y19448D01*
X984891D01*
X994488Y12250D02*
X992089D01*
X990889Y13450D01*
Y15849D01*
X992089Y17048D01*
X994488D01*
X995688Y15849D01*
Y14649D01*
X990889D01*
X1005285Y19448D02*
X1010083D01*
X1007684D01*
Y12250D01*
X1013682D02*
X1016081D01*
X1017281Y13450D01*
Y15849D01*
X1016081Y17048D01*
X1013682D01*
X1012482Y15849D01*
Y13450D01*
X1013682Y12250D01*
X1019680D02*
X1022079D01*
X1020880D01*
Y19448D01*
X1019680D01*
X1029277Y12250D02*
X1026878D01*
X1025678Y13450D01*
Y15849D01*
X1026878Y17048D01*
X1029277D01*
X1030476Y15849D01*
Y14649D01*
X1025678D01*
X1032876Y17048D02*
Y12250D01*
Y14649D01*
X1034075Y15849D01*
X1035275Y17048D01*
X1036475D01*
X1041273D02*
X1043672D01*
X1044872Y15849D01*
Y12250D01*
X1041273D01*
X1040073Y13450D01*
X1041273Y14649D01*
X1044872D01*
X1047271Y12250D02*
Y17048D01*
X1050870D01*
X1052069Y15849D01*
Y12250D01*
X1059267Y17048D02*
X1055668D01*
X1054469Y15849D01*
Y13450D01*
X1055668Y12250D01*
X1059267D01*
X1065265D02*
X1062866D01*
X1061666Y13450D01*
Y15849D01*
X1062866Y17048D01*
X1065265D01*
X1066465Y15849D01*
Y14649D01*
X1061666D01*
X1078461Y12250D02*
X1076062Y14649D01*
Y17048D01*
X1078461Y19448D01*
X1082060Y15849D02*
X1086858D01*
X1089257Y12250D02*
X1091657Y14649D01*
Y17048D01*
X1089257Y19448D01*
X837135D02*
Y12250D01*
Y15849D01*
X841934D01*
Y19448D01*
Y12250D01*
X845532D02*
X847932D01*
X849131Y13450D01*
Y15849D01*
X847932Y17048D01*
X845532D01*
X844333Y15849D01*
Y13450D01*
X845532Y12250D01*
X851530D02*
X853930D01*
X852730D01*
Y19448D01*
X851530D01*
X861127Y12250D02*
X858728D01*
X857528Y13450D01*
Y15849D01*
X858728Y17048D01*
X861127D01*
X862327Y15849D01*
Y14649D01*
X857528D01*
X871924Y19448D02*
X876722D01*
X874323D01*
Y12250D01*
X880321D02*
X882720D01*
X883920Y13450D01*
Y15849D01*
X882720Y17048D01*
X880321D01*
X879121Y15849D01*
Y13450D01*
X880321Y12250D01*
X886319D02*
X888718D01*
X887519D01*
Y19448D01*
X886319D01*
X895916Y12250D02*
X893517D01*
X892317Y13450D01*
Y15849D01*
X893517Y17048D01*
X895916D01*
X897116Y15849D01*
Y14649D01*
X892317D01*
X899515Y17048D02*
Y12250D01*
Y14649D01*
X900714Y15849D01*
X901914Y17048D01*
X903114D01*
X907912D02*
X910311D01*
X911511Y15849D01*
Y12250D01*
X907912D01*
X906713Y13450D01*
X907912Y14649D01*
X911511D01*
X913910Y12250D02*
Y17048D01*
X917509D01*
X918709Y15849D01*
Y12250D01*
X925906Y17048D02*
X922307D01*
X921108Y15849D01*
Y13450D01*
X922307Y12250D01*
X925906D01*
X931904D02*
X929505D01*
X928306Y13450D01*
Y15849D01*
X929505Y17048D01*
X931904D01*
X933104Y15849D01*
Y14649D01*
X928306D01*
X945100Y12250D02*
X942701Y14649D01*
Y17048D01*
X945100Y19448D01*
X948699Y15849D02*
X953497D01*
X951098Y18248D02*
Y13450D01*
X955897Y12250D02*
X958296Y14649D01*
Y17048D01*
X955897Y19448D01*
X751759D02*
Y12250D01*
X755358D01*
X756557Y13450D01*
Y18248D01*
X755358Y19448D01*
X751759D01*
X762555Y12250D02*
X760156D01*
X758956Y13450D01*
Y15849D01*
X760156Y17048D01*
X762555D01*
X763755Y15849D01*
Y14649D01*
X758956D01*
X766154Y12250D02*
X769753D01*
X770953Y13450D01*
X769753Y14649D01*
X767354D01*
X766154Y15849D01*
X767354Y17048D01*
X770953D01*
X778150D02*
X774551D01*
X773352Y15849D01*
Y13450D01*
X774551Y12250D01*
X778150D01*
X780549Y17048D02*
Y12250D01*
Y14649D01*
X781749Y15849D01*
X782949Y17048D01*
X784148D01*
X787747Y12250D02*
X790146D01*
X788947D01*
Y17048D01*
X787747D01*
X793745Y9851D02*
Y17048D01*
X797344D01*
X798544Y15849D01*
Y13450D01*
X797344Y12250D01*
X793745D01*
X802143Y18248D02*
Y17048D01*
X800943D01*
X803342D01*
X802143D01*
Y13450D01*
X803342Y12250D01*
X806941D02*
X809340D01*
X808140D01*
Y17048D01*
X806941D01*
X814139Y12250D02*
X816538D01*
X817737Y13450D01*
Y15849D01*
X816538Y17048D01*
X814139D01*
X812939Y15849D01*
Y13450D01*
X814139Y12250D01*
X820137D02*
Y17048D01*
X823736D01*
X824935Y15849D01*
Y12250D01*
X676779Y19448D02*
X681578D01*
X679179D01*
Y12250D01*
X687576D02*
X685177D01*
X683977Y13450D01*
Y15849D01*
X685177Y17048D01*
X687576D01*
X688776Y15849D01*
Y14649D01*
X683977D01*
X691175Y12250D02*
Y17048D01*
X692374D01*
X693574Y15849D01*
Y12250D01*
Y15849D01*
X694774Y17048D01*
X695973Y15849D01*
Y12250D01*
X698373Y9851D02*
Y17048D01*
X701971D01*
X703171Y15849D01*
Y13450D01*
X701971Y12250D01*
X698373D01*
X705570D02*
X707969D01*
X706770D01*
Y19448D01*
X705570D01*
X712768Y17048D02*
X715167D01*
X716367Y15849D01*
Y12250D01*
X712768D01*
X711568Y13450D01*
X712768Y14649D01*
X716367D01*
X719966Y18248D02*
Y17048D01*
X718766D01*
X721165D01*
X719966D01*
Y13450D01*
X721165Y12250D01*
X728363D02*
X725963D01*
X724764Y13450D01*
Y15849D01*
X725963Y17048D01*
X728363D01*
X729562Y15849D01*
Y14649D01*
X724764D01*
X602200Y12250D02*
Y19448D01*
X605798D01*
X606998Y18248D01*
Y15849D01*
X605798Y14649D01*
X602200D01*
X610597Y17048D02*
X612996D01*
X614196Y15849D01*
Y12250D01*
X610597D01*
X609397Y13450D01*
X610597Y14649D01*
X614196D01*
X621393Y19448D02*
Y12250D01*
X617795D01*
X616595Y13450D01*
Y15849D01*
X617795Y17048D01*
X621393D01*
X635789Y18248D02*
X634589Y19448D01*
X632190D01*
X630990Y18248D01*
Y17048D01*
X632190Y15849D01*
X634589D01*
X635789Y14649D01*
Y13450D01*
X634589Y12250D01*
X632190D01*
X630990Y13450D01*
X638188Y19448D02*
Y12250D01*
Y15849D01*
X639388Y17048D01*
X641787D01*
X642986Y15849D01*
Y12250D01*
X646585Y17048D02*
X648984D01*
X650184Y15849D01*
Y12250D01*
X646585D01*
X645386Y13450D01*
X646585Y14649D01*
X650184D01*
X652583Y9851D02*
Y17048D01*
X656182D01*
X657382Y15849D01*
Y13450D01*
X656182Y12250D01*
X652583D01*
X663380D02*
X660981D01*
X659781Y13450D01*
Y15849D01*
X660981Y17048D01*
X663380D01*
X664579Y15849D01*
Y14649D01*
X659781D01*
X543215Y19448D02*
Y14649D01*
X545614Y12250D01*
X548013Y14649D01*
Y19448D01*
X550412Y12250D02*
X552812D01*
X551612D01*
Y17048D01*
X550412D01*
X557610D02*
X560009D01*
X561209Y15849D01*
Y12250D01*
X557610D01*
X556411Y13450D01*
X557610Y14649D01*
X561209D01*
X563608Y12250D02*
X568407Y17048D01*
X570806Y12250D02*
Y19448D01*
X574405D01*
X575604Y18248D01*
Y15849D01*
X574405Y14649D01*
X570806D01*
X579203Y17048D02*
X581602D01*
X582802Y15849D01*
Y12250D01*
X579203D01*
X578004Y13450D01*
X579203Y14649D01*
X582802D01*
X590000Y19448D02*
Y12250D01*
X586401D01*
X585201Y13450D01*
Y15849D01*
X586401Y17048D01*
X590000D01*
X393260Y19448D02*
Y12250D01*
X396859D01*
X398058Y13450D01*
Y18248D01*
X396859Y19448D01*
X393260D01*
X400457Y17048D02*
Y12250D01*
Y14649D01*
X401657Y15849D01*
X402857Y17048D01*
X404056D01*
X407655Y12250D02*
X410054D01*
X408855D01*
Y17048D01*
X407655D01*
X413653Y12250D02*
X416052D01*
X414853D01*
Y19448D01*
X413653D01*
X419651Y12250D02*
X422050D01*
X420851D01*
Y19448D01*
X419651D01*
X432847D02*
Y12250D01*
X437645D01*
X441244Y17048D02*
X443643D01*
X444843Y15849D01*
Y12250D01*
X441244D01*
X440045Y13450D01*
X441244Y14649D01*
X444843D01*
X447242Y17048D02*
Y13450D01*
X448442Y12250D01*
X452041D01*
Y11050D01*
X450841Y9851D01*
X449642D01*
X452041Y12250D02*
Y17048D01*
X458039Y12250D02*
X455640D01*
X454440Y13450D01*
Y15849D01*
X455640Y17048D01*
X458039D01*
X459238Y15849D01*
Y14649D01*
X454440D01*
X461638Y17048D02*
Y12250D01*
Y14649D01*
X462837Y15849D01*
X464037Y17048D01*
X465236D01*
X476033Y12250D02*
Y19448D01*
X479632D01*
X480831Y18248D01*
Y15849D01*
X479632Y14649D01*
X476033D01*
X484430Y17048D02*
X486829D01*
X488029Y15849D01*
Y12250D01*
X484430D01*
X483231Y13450D01*
X484430Y14649D01*
X488029D01*
X490428Y12250D02*
X492828D01*
X491628D01*
Y17048D01*
X490428D01*
X496426D02*
Y12250D01*
Y14649D01*
X497626Y15849D01*
X498826Y17048D01*
X500025D01*
X319880Y19448D02*
Y12250D01*
Y15849D01*
X324678D01*
Y19448D01*
Y12250D01*
X328277D02*
X330676D01*
X331876Y13450D01*
Y15849D01*
X330676Y17048D01*
X328277D01*
X327077Y15849D01*
Y13450D01*
X328277Y12250D01*
X334275D02*
X336674D01*
X335474D01*
Y19448D01*
X334275D01*
X343872Y12250D02*
X341473D01*
X340273Y13450D01*
Y15849D01*
X341473Y17048D01*
X343872D01*
X345071Y15849D01*
Y14649D01*
X340273D01*
X354668Y19448D02*
X359467D01*
X357067D01*
Y12250D01*
X361866Y17048D02*
Y13450D01*
X363066Y12250D01*
X366664D01*
Y11050D01*
X365465Y9851D01*
X364265D01*
X366664Y12250D02*
Y17048D01*
X369064Y9851D02*
Y17048D01*
X372662D01*
X373862Y15849D01*
Y13450D01*
X372662Y12250D01*
X369064D01*
X379860D02*
X377461D01*
X376261Y13450D01*
Y15849D01*
X377461Y17048D01*
X379860D01*
X381060Y15849D01*
Y14649D01*
X376261D01*
X269292Y12250D02*
Y19448D01*
X272891D01*
X274090Y18248D01*
Y15849D01*
X272891Y14649D01*
X269292D01*
X276490Y12250D02*
X278889D01*
X277689D01*
Y19448D01*
X276490D01*
X283687Y17048D02*
X286087D01*
X287286Y15849D01*
Y12250D01*
X283687D01*
X282488Y13450D01*
X283687Y14649D01*
X287286D01*
X290885Y18248D02*
Y17048D01*
X289685D01*
X292085D01*
X290885D01*
Y13450D01*
X292085Y12250D01*
X299282D02*
X296883D01*
X295683Y13450D01*
Y15849D01*
X296883Y17048D01*
X299282D01*
X300482Y15849D01*
Y14649D01*
X295683D01*
X307680Y19448D02*
Y12250D01*
X304081D01*
X302881Y13450D01*
Y15849D01*
X304081Y17048D01*
X307680D01*
X159324Y19448D02*
Y12250D01*
Y15849D01*
X164122D01*
Y19448D01*
Y12250D01*
X167721D02*
X170121D01*
X171320Y13450D01*
Y15849D01*
X170121Y17048D01*
X167721D01*
X166522Y15849D01*
Y13450D01*
X167721Y12250D01*
X173719D02*
X176119D01*
X174919D01*
Y19448D01*
X173719D01*
X183316Y12250D02*
X180917D01*
X179717Y13450D01*
Y15849D01*
X180917Y17048D01*
X183316D01*
X184516Y15849D01*
Y14649D01*
X179717D01*
X198911Y18248D02*
X197712Y19448D01*
X195312D01*
X194113Y18248D01*
Y17048D01*
X195312Y15849D01*
X197712D01*
X198911Y14649D01*
Y13450D01*
X197712Y12250D01*
X195312D01*
X194113Y13450D01*
X201310Y12250D02*
X203710D01*
X202510D01*
Y17048D01*
X201310D01*
X207308D02*
X212107D01*
X207308Y12250D01*
X212107D01*
X218105D02*
X215706D01*
X214506Y13450D01*
Y15849D01*
X215706Y17048D01*
X218105D01*
X219305Y15849D01*
Y14649D01*
X214506D01*
X111136Y18248D02*
X109936Y19448D01*
X107537D01*
X106338Y18248D01*
Y13450D01*
X107537Y12250D01*
X109936D01*
X111136Y13450D01*
X114735Y12250D02*
X117134D01*
X118334Y13450D01*
Y15849D01*
X117134Y17048D01*
X114735D01*
X113535Y15849D01*
Y13450D01*
X114735Y12250D01*
X120733Y17048D02*
Y13450D01*
X121932Y12250D01*
X125531D01*
Y17048D01*
X127931Y12250D02*
Y17048D01*
X131529D01*
X132729Y15849D01*
Y12250D01*
X136328Y18248D02*
Y17048D01*
X135128D01*
X137528D01*
X136328D01*
Y13450D01*
X137528Y12250D01*
X60549Y18248D02*
X59349Y19448D01*
X56950D01*
X55750Y18248D01*
Y17048D01*
X56950Y15849D01*
X59349D01*
X60549Y14649D01*
Y13450D01*
X59349Y12250D01*
X56950D01*
X55750Y13450D01*
X62948Y17048D02*
Y13450D01*
X64147Y12250D01*
X67746D01*
Y11050D01*
X66546Y9851D01*
X65347D01*
X67746Y12250D02*
Y17048D01*
X70145Y12250D02*
Y17048D01*
X71345D01*
X72545Y15849D01*
Y12250D01*
Y15849D01*
X73744Y17048D01*
X74944Y15849D01*
Y12250D01*
X77343Y19448D02*
Y12250D01*
X80942D01*
X82142Y13450D01*
Y14649D01*
Y15849D01*
X80942Y17048D01*
X77343D01*
X85740Y12250D02*
X88139D01*
X89339Y13450D01*
Y15849D01*
X88139Y17048D01*
X85740D01*
X84541Y15849D01*
Y13450D01*
X85740Y12250D01*
X91738D02*
X94138D01*
X92938D01*
Y19448D01*
X91738D01*
M02*
