G04*
G04 #@! TF.GenerationSoftware,Altium Limited,Altium Designer,19.1.5 (86)*
G04*
G04 Layer_Color=128*
%FSLAX25Y25*%
%MOIN*%
G70*
G01*
G75*
%ADD29C,0.00200*%
D29*
X34728Y5000D02*
X38272D01*
X36500Y3228D02*
Y6772D01*
X34728Y-5000D02*
X38272D01*
X36500Y-6772D02*
Y-3228D01*
X23728Y-25000D02*
X27272D01*
X25500Y-26772D02*
Y-23228D01*
X23728Y-15000D02*
X27272D01*
X25500Y-16772D02*
Y-13228D01*
X23728Y-5000D02*
X27272D01*
X25500Y-6772D02*
Y-3228D01*
X23728Y5000D02*
X27272D01*
X25500Y3228D02*
Y6772D01*
X23728Y15000D02*
X27272D01*
X25500Y13228D02*
Y16772D01*
X23728Y25000D02*
X27272D01*
X25500Y23228D02*
Y26772D01*
X-6484Y4000D02*
X-4516D01*
X-5500Y3016D02*
Y4984D01*
X2016Y500D02*
X3984D01*
X3000Y-484D02*
Y1484D01*
X-17484Y16000D02*
X-15516D01*
X-16500Y15016D02*
Y16984D01*
X16516Y-13500D02*
X18484D01*
X17500Y-14484D02*
Y-12516D01*
X16016Y17500D02*
X17984D01*
X17000Y16516D02*
Y18484D01*
X-24984Y-8000D02*
X-23016D01*
X-24000Y-8984D02*
Y-7016D01*
X-19484Y-18500D02*
X-17516D01*
X-18500Y-19484D02*
Y-17516D01*
X-3984Y-4500D02*
X-2016D01*
X-3000Y-5484D02*
Y-3516D01*
M02*
